<?xml version="1.0" encoding="utf-8"?>
<!-- Generator: Adobe Illustrator 22.1.0, SVG Export Plug-In . SVG Version: 6.00 Build 0)  -->
<svg version="1.1" baseProfile="tiny" id="Layer_1" xmlns="http://www.w3.org/2000/svg" xmlns:xlink="http://www.w3.org/1999/xlink"
	 x="0px" y="0px" viewBox="0 0 64 64" xml:space="preserve">
<path fill="none" stroke="#4A4A4A" stroke-width="2" stroke-linecap="round" stroke-linejoin="round" stroke-miterlimit="10" d="
	M46,8.7c-6.5-0.4-12.1,3.7-14,9.5c-1.9-5.8-7.5-9.8-14-9.5c-8,0.5-13.7,7.9-13,15.9c0.6,6.5,4,10.7,8.9,15.6c4.6,4.6,5,4,14.7,13.8
	c1.9,1.9,4.9,1.9,6.8,0c6.5-6.5,7.4-6.5,14.7-13.8c4.9-4.9,8.3-9.1,8.9-15.6C59.7,16.5,54.1,9.1,46,8.7z"/>
<path fill="none" stroke="#4A4A4A" stroke-width="2" stroke-linecap="round" stroke-miterlimit="10" d="M53,23.3
	c0-4.8-3.9-8.6-8.6-8.6"/>
<path fill="none" stroke="#4A4A4A" stroke-width="2" stroke-linecap="round" stroke-miterlimit="10" d="M11.1,23.3
	c0-4.8,3.9-8.6,8.6-8.6"/>
</svg>
