<?xml version="1.0" encoding="utf-8"?>
<!-- Generator: Adobe Illustrator 22.1.0, SVG Export Plug-In . SVG Version: 6.00 Build 0)  -->
<svg version="1.1" baseProfile="tiny" id="Layer_1" xmlns="http://www.w3.org/2000/svg" xmlns:xlink="http://www.w3.org/1999/xlink"
	 x="0px" y="0px" viewBox="0 0 64 64" xml:space="preserve">
<g>
	<path fill="#454545" d="M44.7,9.9c-2.8,0-5.1,2.3-5.1,5.1v5.6c-0.9-0.8-2.1-1.3-3.4-1.3c-1.8,0-3.3,0.9-4.2,2.3
		c-0.9-1.4-2.5-2.3-4.2-2.3c-1.3,0-2.5,0.5-3.4,1.3V9.9c0-2.8-2.3-5.1-5.1-5.1c-2.8,0-5.1,2.3-5.1,5.1v32.2c0,9.3,7.6,17,17,17h1.7
		c9.3,0,17-7.6,17-17V15C49.8,12.2,47.5,9.9,44.7,9.9z M32.8,24.4c0-1.9,1.5-3.4,3.4-3.4c1.9,0,3.4,1.5,3.4,3.4v14.4
		c0,1.9-1.5,3.4-3.4,3.4c-1.7,0-3.4-1.4-3.4-3.4V24.4z M24.4,24.4c0-1.9,1.5-3.4,3.4-3.4c1.9,0,3.4,1.5,3.4,3.4V35
		c-0.9-0.8-2.1-1.3-3.4-1.3h-3.4V24.4z M15.9,9.9c0-1.9,1.5-3.4,3.4-3.4c1.9,0,3.4,1.5,3.4,3.4v23.7h-3.4c-1.3,0-2.5,0.5-3.4,1.3
		V9.9z M48.1,42.2c0,8.4-6.8,15.3-15.3,15.3h-1.7c-8.4,0-15.3-6.8-15.3-15.3v-3.4c0-1.9,1.5-3.4,3.4-3.4h3.4h1.7h3.4
		c0.3,0,0.6,0.1,0.8,0.1v1.2c0,0.2-0.2,0.4-0.4,0.4h-3.4c-0.2,0-0.4,0.2-0.4,0.4c0,0.2,0.2,0.4,0.4,0.4h3.8c0.5,0,0.8-0.4,0.8-0.8
		v-1.2c1,0.6,1.6,1.6,1.7,2.8c0.1,1.9-1.5,3.5-3.4,3.5h-4.2c-0.5,0-0.8,0.4-0.8,0.8s0.4,0.8,0.8,0.8h4c1.8,0,3.5-0.9,4.4-2.3
		c1,1.5,2.7,2.3,4.3,2.3c2.8,0,5.1-2.3,5.1-5.1V15c0-1.9,1.5-3.4,3.4-3.4s3.4,1.5,3.4,3.4V42.2z"/>
	<path fill="#454545" d="M37.5,37.1c0.2,0,0.4,0.2,0.4,0.4v1.3c0,0.9-0.8,1.7-1.7,1.7c-0.2,0-0.4,0.2-0.4,0.4s0.2,0.4,0.4,0.4
		c1.4,0,2.5-1.1,2.5-2.5v-1.7c0-0.5-0.4-0.8-0.8-0.8h-3.8c-0.2,0-0.4,0.2-0.4,0.4s0.2,0.4,0.4,0.4H37.5z"/>
	<path fill="#454545" d="M21,28.2c0-0.2-0.2-0.4-0.4-0.4H18c-0.2,0-0.4,0.2-0.4,0.4c0,0.2,0.2,0.4,0.4,0.4h2.5
		C20.8,28.6,21,28.4,21,28.2z"/>
	<path fill="#454545" d="M29.5,31.6c0-0.2-0.2-0.4-0.4-0.4h-2.5c-0.2,0-0.4,0.2-0.4,0.4s0.2,0.4,0.4,0.4H29
		C29.3,32,29.5,31.8,29.5,31.6z"/>
	<path fill="#454545" d="M35,32h2.5c0.2,0,0.4-0.2,0.4-0.4s-0.2-0.4-0.4-0.4H35c-0.2,0-0.4,0.2-0.4,0.4S34.7,32,35,32z"/>
	<path fill="#454545" d="M46,32.8h-2.5c-0.2,0-0.4,0.2-0.4,0.4c0,0.2,0.2,0.4,0.4,0.4H46c0.2,0,0.4-0.2,0.4-0.4
		C46.4,33,46.2,32.8,46,32.8z"/>
	<path fill="#454545" d="M46,21.8h-2.5c-0.2,0-0.4,0.2-0.4,0.4c0,0.2,0.2,0.4,0.4,0.4H46c0.2,0,0.4-0.2,0.4-0.4
		C46.4,22,46.2,21.8,46,21.8z"/>
	<path fill="#454545" d="M18,17.6h2.5c0.2,0,0.4-0.2,0.4-0.4c0-0.2-0.2-0.4-0.4-0.4H18c-0.2,0-0.4,0.2-0.4,0.4
		C17.6,17.4,17.8,17.6,18,17.6z"/>
</g>
</svg>
